<svg width="21" height="24" viewBox="0 0 21 24" fill="none" xmlns="http://www.w3.org/2000/svg">
<path d="M9.9777 19.5763C11.8664 19.5763 13.6331 19.0613 15.1391 18.1666L18.707 22.8334C19.1291 23.3855 19.9276 23.4974 20.4904 23.0833C21.0532 22.6692 21.1673 21.886 20.7452 21.3338L17.1334 16.6096C18.8797 14.8469 19.9554 12.4406 19.9554 9.78816C19.9554 4.38231 15.4882 0 9.9777 0C4.46717 0 0 4.38231 0 9.78816C0 15.194 4.46717 19.5763 9.9777 19.5763ZM17.4077 9.78816C17.4077 13.8137 14.0812 17.077 9.9777 17.077C5.87421 17.077 2.54768 13.8137 2.54768 9.78816C2.54768 5.76262 5.87421 2.49928 9.9777 2.49928C14.0812 2.49928 17.4077 5.76262 17.4077 9.78816Z" fill="white"/>
</svg>
